<?xml version="1.0" encoding="utf-8"?>
<svg aria-hidden="true" focusable="false" data-prefix="far" data-icon="share-square" class="svg-inline--fa fa-share-square fa-w-18" role="img" viewBox="0 0 576 512" xmlns="http://www.w3.org/2000/svg">
  <path fill="currentColor" d="M 552.454 191.814 L 383.348 21.585 C 348.101 -13.904 287.121 10.948 287.121 61.716 L 287.121 129.348 C 237.269 131.57 188.44 137.092 145.305 150.618 C 104.003 163.566 71.239 183.23 47.94 209.053 C 19.626 240.458 5.275 279.951 5.275 326.467 C 5.275 399.418 44.238 459.435 104.942 497.632 C 149.035 525.428 205.054 482.674 188.346 431.725 C 170.126 376.011 168.199 347.864 287.121 338.599 L 287.121 402.212 C 287.121 453.047 348.15 477.783 383.348 442.343 L 552.454 272.076 C 574.473 249.918 574.473 213.972 552.454 191.814 Z M 343.49 402.212 L 343.49 279.43 C 192.361 281.703 88.058 306.85 134.818 449.508 C 100.152 427.692 61.645 388.118 61.645 326.467 C 61.645 197.189 213.301 185.822 343.49 184.755 L 343.49 61.678 L 512.598 231.945 L 343.49 402.212 Z" style=""/>
</svg>